<?xml version="1.0" standalone="no"?>
<!DOCTYPE svg PUBLIC "-//W3C//DTD SVG 20010904//EN"
 "http://www.w3.org/TR/2001/REC-SVG-20010904/DTD/svg10.dtd">
<svg version="1.0" xmlns="http://www.w3.org/2000/svg"
 width="1024.000000pt" height="1024.000000pt" viewBox="0 0 1024.000000 1024.000000"
 preserveAspectRatio="xMidYMid meet">

<g transform="translate(0.000000,1024.000000) scale(0.100000,-0.100000)"
fill="#000000" stroke="none">
<path d="M4895 8169 c-234 -22 -504 -75 -663 -131 -425 -149 -769 -352 -1081
-638 -328 -301 -539 -584 -726 -973 -146 -305 -199 -488 -262 -912 -25 -167
-25 -597 0 -775 55 -392 122 -628 265 -930 93 -197 206 -378 343 -550 181
-227 271 -320 508 -524 199 -172 494 -352 756 -461 554 -231 1202 -285 1845
-155 164 33 242 57 425 130 305 121 606 298 842 495 110 92 309 292 395 398
216 265 435 664 540 982 57 174 83 285 117 505 44 283 54 411 46 590 -28 641
-180 1104 -541 1652 -151 228 -315 411 -539 597 -184 153 -197 163 -355 263
-404 256 -826 396 -1320 438 -135 12 -466 11 -595 -1z m165 -457 c0 -187 -3
-421 -7 -520 -6 -180 -6 -182 -29 -182 -57 0 -54 -33 -54 526 l0 514 45 0 45
0 0 -338z m178 -24 l-3 -363 -44 -3 -44 -3 7 32 c3 17 6 182 6 365 l0 334 40
0 40 0 -2 -362z m182 312 c3 -25 3 -255 2 -512 l-4 -468 -39 0 -39 0 0 516 0
516 38 -4 c36 -3 37 -4 42 -48z m198 -360 c1 -217 0 -446 -4 -507 l-6 -113
-44 0 -44 0 0 508 c0 280 2 511 5 514 3 2 24 2 47 -1 l43 -6 3 -395z m-750
-112 l-3 -513 -46 -3 -46 -3 -2 507 c-1 402 1 509 11 516 7 4 30 8 51 8 l37 0
-2 -512z m1034 453 c325 -72 551 -172 933 -413 209 -131 532 -432 670 -623
263 -364 441 -728 530 -1085 9 -36 18 -73 21 -82 5 -16 -2 -18 -49 -18 l-54 0
-6 53 c-7 69 -77 282 -139 425 -103 235 -220 439 -356 621 -106 142 -175 218
-299 334 -271 251 -550 433 -886 576 -162 69 -426 151 -488 151 l-49 0 0 51
c0 43 2 50 18 45 9 -3 79 -19 154 -35z m-1252 -19 l0 -48 -87 -11 c-95 -13
-335 -87 -476 -147 -141 -61 -387 -197 -503 -279 -268 -188 -416 -327 -652
-610 -45 -54 -188 -266 -236 -351 -122 -212 -213 -453 -280 -738 -6 -25 -11
-28 -46 -28 -49 0 -49 -3 -10 149 81 321 228 632 442 934 403 568 1057 1014
1683 1148 176 37 165 38 165 -19z m1251 -132 c26 -14 51 -67 44 -90 -8 -26
-53 -60 -79 -60 -32 0 -95 47 -102 77 -14 54 79 103 137 73z m-1317 -25 c32
-30 33 -59 2 -90 -48 -48 -116 -42 -136 11 -14 36 -5 59 33 83 42 27 68 26
101 -4z m1610 -124 c20 -22 12 -71 -11 -71 -8 0 -37 10 -64 21 -51 22 -60 40
-39 79 9 18 13 18 54 4 24 -8 51 -23 60 -33z m-1877 4 c9 -19 15 -36 12 -38
-2 -2 -36 -15 -76 -29 l-72 -25 -12 34 c-7 21 -8 38 -2 44 9 9 110 48 126 49
4 0 15 -16 24 -35z m-244 -115 c6 -24 -5 -33 -65 -53 -46 -15 -48 -15 -63 6
-23 33 -19 41 38 69 46 23 54 24 69 11 9 -8 18 -23 21 -33z m2321 30 c51 -22
58 -43 27 -81 l-18 -22 -36 21 c-41 26 -50 43 -37 77 11 30 8 30 64 5z m-1744
-42 l0 -53 -119 -27 c-230 -51 -536 -196 -756 -357 -241 -177 -531 -487 -663
-708 -82 -137 -187 -358 -222 -468 -62 -197 -56 -185 -106 -185 -24 0 -44 3
-44 8 0 32 47 188 86 287 139 357 307 609 599 900 214 214 370 331 609 456
154 80 247 115 421 160 202 51 195 51 195 -13z m1260 21 c426 -99 948 -441
1237 -809 209 -266 313 -455 412 -747 33 -99 37 -117 20 -93 -8 12 -10 9 -6
-11 3 -22 0 -25 -15 -21 -14 3 -18 -1 -18 -22 0 -14 6 -26 13 -26 9 0 8 -3 -2
-9 -7 -5 -11 -13 -8 -18 3 -5 2 -15 -2 -22 -8 -12 -30 58 -36 109 -1 8 -9 31
-18 50 -8 19 -30 73 -48 120 -32 85 -56 134 -152 305 -106 189 -218 334 -384
496 -173 169 -298 263 -518 386 -232 130 -352 175 -627 237 -26 6 -28 10 -28
57 l0 51 48 -6 c26 -4 85 -16 132 -27z m693 -76 c18 -9 49 -29 69 -46 l37 -29
-22 -34 c-24 -36 -36 -40 -70 -23 -65 34 -91 84 -67 130 13 23 13 23 53 2z
m-2743 -55 c0 -16 -63 -78 -81 -78 -10 0 -26 11 -35 25 -15 23 -15 27 1 51 9
14 31 32 48 39 30 13 33 12 49 -8 10 -12 18 -25 18 -29z m790 -187 c0 -65 3
-131 6 -147 5 -29 5 -29 -98 -64 -135 -45 -337 -147 -485 -245 -189 -125 -438
-388 -519 -547 -13 -27 -29 -48 -35 -48 -6 0 -26 12 -45 26 l-34 26 30 36 c39
48 38 68 -4 88 -32 16 -35 15 -59 -2 -38 -28 -51 -62 -34 -88 14 -21 14 -21
-65 -17 -61 2 -84 -1 -104 -14 -14 -9 -28 -15 -30 -12 -10 10 98 178 179 277
110 137 350 379 457 462 162 125 419 258 655 337 83 28 158 51 168 51 15 0 17
-12 17 -119z m1200 94 c210 -53 374 -122 535 -225 50 -31 123 -78 163 -103 39
-26 72 -49 72 -51 0 -3 -19 4 -43 14 -59 26 -114 33 -164 22 -31 -7 -43 -7
-43 2 0 27 -51 116 -85 149 -53 51 -110 71 -188 65 -34 -3 -81 -14 -104 -26
-37 -17 -44 -18 -54 -5 -23 27 -88 53 -149 60 l-60 6 0 58 c0 35 4 59 11 59 6
0 55 -11 109 -25z m993 -10 c26 -20 47 -39 47 -44 0 -13 -44 -74 -56 -78 -15
-5 -104 65 -104 83 0 19 40 74 54 74 6 0 32 -16 59 -35z m-3207 -10 c21 -32
14 -48 -32 -70 -67 -32 -101 21 -44 69 39 32 55 33 76 1z m3403 -159 l25 -26
-29 -30 c-16 -17 -34 -30 -41 -30 -6 0 -30 17 -53 38 l-42 37 31 38 32 37 26
-19 c15 -10 38 -31 51 -45z m-3549 34 c20 -20 20 -20 -17 -35 -55 -23 -68 -16
-41 22 27 38 32 39 58 13z m1741 -3 c26 -17 35 -31 37 -57 6 -71 -66 -105
-113 -54 -33 36 -33 78 1 109 33 30 33 30 75 2z m608 -32 c40 -14 80 -24 87
-21 18 7 18 8 -11 -58 l-25 -56 -38 19 c-20 10 -56 24 -80 30 l-42 12 0 56 c0
63 -10 61 109 18z m363 -77 c39 -27 58 -68 58 -123 0 -52 -21 -99 -49 -115
-27 -14 -111 -12 -138 3 -38 21 -73 77 -73 117 0 80 74 157 140 145 19 -4 47
-16 62 -27z m-2842 1 c0 -16 -62 -89 -71 -83 -16 10 -9 54 11 74 21 21 60 27
60 9z m3825 -69 c37 -38 38 -41 24 -66 -7 -15 -20 -29 -28 -32 -19 -7 -77 26
-96 55 -14 21 -14 25 7 53 29 40 46 38 93 -10z m-3925 -25 c15 -19 2 -51 -36
-86 -23 -22 -24 -22 -44 -4 -27 24 -25 33 12 72 35 37 49 40 68 18z m2586 -55
c20 -7 40 -29 64 -71 30 -53 42 -64 104 -94 56 -29 80 -35 131 -35 l61 0 18
-57 c10 -32 23 -64 28 -70 20 -25 -6 -13 -56 26 -64 49 -127 81 -291 146
l-130 53 -3 56 c-3 53 -2 56 21 56 13 0 37 -5 53 -10z m-1216 -50 c0 -49 0
-49 -37 -55 -65 -11 -225 -66 -298 -103 -66 -33 -141 -85 -229 -159 -21 -18
-43 -30 -49 -26 -6 3 -7 2 -4 -4 7 -11 -28 -45 -37 -36 -3 4 -6 1 -6 -5 0 -6
-9 -13 -19 -17 -10 -3 -25 -20 -32 -38 -7 -17 -39 -61 -70 -98 -103 -119 -190
-277 -261 -473 -22 -61 -44 -115 -48 -120 -5 -5 -26 -5 -47 -1 l-38 7 32 26
c17 15 43 47 59 72 15 24 33 51 41 58 9 9 13 41 13 99 0 97 0 96 119 278 42
65 102 137 171 205 89 89 130 123 245 208 98 71 183 116 345 183 149 62 150
62 150 -1z m2353 -309 c160 -209 284 -433 353 -635 28 -81 28 -82 11 -67 -16
13 -27 5 -27 -21 0 -10 -7 -18 -15 -18 -8 0 -15 -7 -15 -16 0 -8 -4 -12 -10
-9 -6 3 -7 -1 -4 -9 4 -10 1 -17 -7 -18 -8 0 9 -4 36 -8 l50 -7 -54 1 -55 1
-23 80 c-54 177 -115 307 -169 354 -27 24 -34 35 -25 44 18 18 12 54 -15 86
-30 36 -66 40 -103 12 -28 -21 -22 -38 35 -101 22 -24 48 -75 73 -141 22 -57
52 -133 67 -169 36 -88 56 -158 49 -170 -3 -6 -24 -10 -45 -10 l-38 0 -28 83
c-78 236 -170 412 -288 552 -28 33 -68 81 -89 107 l-37 46 41 33 c33 26 43 29
50 18 5 -8 9 -20 9 -27 0 -18 80 -102 97 -102 8 0 12 -4 9 -8 -3 -5 2 -18 10
-30 17 -25 51 -28 78 -9 17 13 17 15 1 46 -9 18 -25 36 -36 38 -11 3 -19 14
-19 25 0 34 -39 87 -85 113 l-42 25 -5 78 c-3 52 -12 91 -26 119 -12 23 -22
46 -22 50 1 16 244 -244 313 -336z m-452 306 c39 -25 79 -97 79 -140 0 -76
-76 -146 -143 -133 -46 9 -115 71 -128 114 -15 50 3 115 41 154 37 36 101 39
151 5z m811 -37 c21 -23 38 -47 38 -54 0 -20 -59 -54 -81 -49 -24 7 -69 59
-69 81 0 20 39 62 58 62 8 0 32 -18 54 -40z m-4228 -11 c33 -26 33 -37 -3 -79
l-28 -34 -37 27 c-20 16 -36 31 -36 35 0 8 62 72 71 72 3 0 18 -9 33 -21z
m2444 11 l62 0 0 -255 0 -255 53 0 c140 -1 305 -74 429 -190 146 -136 217
-286 225 -470 9 -187 -43 -327 -171 -459 l-71 -73 25 -16 c14 -8 60 -52 103
-96 58 -60 88 -102 117 -161 61 -127 75 -189 74 -345 -1 -115 -5 -146 -26
-210 -65 -199 -213 -365 -402 -450 -89 -39 -162 -57 -268 -66 l-88 -7 0 -166
c0 -91 -3 -196 -7 -233 l-6 -68 -168 0 -169 0 -2 238 -3 237 -82 3 -83 3 0
-236 0 -235 -169 0 -168 0 0 168 c0 92 -1 197 -2 235 l-1 67 -355 0 -355 0 2
223 3 222 155 5 155 5 0 820 0 820 -155 5 -155 5 -1 160 c0 88 1 184 4 213 l4
52 349 0 349 0 2 253 3 252 168 3 167 2 0 -255 0 -255 85 2 85 3 0 252 0 252
48 4 c26 3 76 3 112 1 36 -2 93 -4 128 -4z m262 -134 c61 -19 198 -79 282
-122 178 -94 427 -353 523 -545 40 -79 105 -257 105 -288 0 -12 -29 -15 -54
-5 -10 4 -27 41 -42 93 -55 182 -162 349 -325 507 -137 132 -254 206 -404 253
-135 43 -150 54 -138 99 3 12 6 22 7 22 0 0 21 -6 46 -14z m1642 -43 c14 -16
33 -40 42 -54 16 -26 16 -27 -10 -48 -41 -32 -68 -27 -103 21 -17 23 -31 48
-31 55 0 12 55 53 71 53 3 0 17 -12 31 -27z m-4472 -8 c20 -22 21 -27 11 -54
-7 -16 -24 -39 -37 -52 l-25 -23 -30 31 c-28 27 -30 33 -19 54 17 33 51 69 65
69 6 0 22 -11 35 -25z m1464 10 c-4 -8 -10 -15 -15 -15 -5 0 -9 7 -9 15 0 8 7
15 15 15 9 0 12 -6 9 -15z m-74 -44 c15 -29 13 -35 -21 -55 -33 -20 -43 -15
-53 25 -4 21 -1 28 17 37 33 16 45 14 57 -7z m1530 -112 c46 -22 107 -54 135
-71 54 -34 235 -185 235 -196 0 -4 14 -21 30 -39 17 -18 30 -34 30 -37 0 -16
-38 9 -106 70 -149 132 -263 198 -402 232 l-72 17 0 38 c0 38 0 39 33 32 17
-4 70 -25 117 -46z m578 -28 c56 -31 258 -303 288 -387 4 -10 26 -64 49 -119
24 -55 51 -126 61 -158 16 -51 16 -60 4 -68 -35 -22 -53 -6 -75 66 -24 77 -82
219 -122 299 -30 61 -143 213 -207 279 -25 26 -46 55 -46 65 0 11 -3 13 -8 5
-5 -8 -15 -4 -32 14 l-25 26 50 -7 c28 -5 56 -11 63 -15z m1103 -13 c16 -18
29 -40 29 -50 0 -16 -48 -58 -67 -58 -11 0 -44 35 -67 71 -17 27 -17 27 21 47
50 27 49 27 84 -10z m-4732 -15 c17 -10 31 -23 31 -29 0 -14 -58 -94 -68 -94
-11 0 -72 39 -72 46 0 18 52 94 65 94 7 0 27 -8 44 -17z m4820 -159 c30 -38
27 -60 -10 -73 -34 -12 -42 -9 -76 22 -31 28 -29 53 5 65 44 16 59 14 81 -14z
m-4939 -56 c37 -27 37 -36 1 -82 l-29 -36 -21 26 c-12 15 -21 31 -21 36 0 14
28 78 35 78 3 0 19 -10 35 -22z m1165 -74 c-4 -29 -22 -64 -54 -108 -55 -74
-84 -137 -109 -233 -9 -38 -17 -69 -17 -70 -1 -2 -16 -6 -35 -9 -33 -7 -33 -7
-27 25 7 34 71 210 89 246 6 11 43 69 82 130 75 115 86 118 71 19z m-509 -30
c61 -40 88 -86 88 -150 -2 -127 -133 -197 -246 -131 -81 47 -109 127 -70 203
51 99 145 132 228 78z m4342 3 c11 -12 28 -40 37 -62 16 -37 16 -40 -2 -52
-24 -18 -59 -27 -78 -19 -22 8 -55 67 -55 98 0 28 31 58 60 58 9 0 26 -10 38
-23z m-1293 -109 c31 -53 115 -249 115 -269 0 -5 -18 -9 -40 -9 -38 0 -39 2
-45 38 -3 20 -8 45 -10 55 -2 9 1 15 6 12 22 -14 -1 80 -29 120 -17 24 -32 54
-34 67 -2 13 -12 33 -23 46 -11 13 -23 33 -27 45 -12 33 46 -36 87 -105z
m-3755 27 c21 -26 6 -44 -32 -36 -24 5 -34 13 -36 29 -3 18 1 22 26 22 16 0
35 -7 42 -15z m1231 -297 c21 -18 20 -18 -32 -18 -62 0 -99 8 -99 21 0 5 4 9
10 9 5 0 20 11 34 25 14 14 32 25 41 25 12 0 15 16 17 88 2 84 2 83 5 -23 3
-97 6 -112 24 -127z m-804 59 c26 -26 51 -47 55 -47 4 0 8 -4 8 -10 0 -6 -42
-10 -105 -10 -58 0 -105 3 -105 6 0 9 59 175 67 187 3 6 12 -10 19 -35 9 -30
29 -60 61 -91z m4697 107 c18 -46 -1 -84 -40 -84 -40 0 -75 80 -41 93 28 12
75 7 81 -9z m-5194 -59 c12 -15 6 -70 -10 -80 -5 -3 -21 1 -34 10 -24 16 -25
17 -9 51 18 37 34 42 53 19z m1180 -245 c0 -16 -29 -70 -38 -70 -4 0 -335 -1
-737 -1 -656 0 -730 1 -729 15 0 9 1 27 2 41 l2 25 750 0 c517 0 750 -3 750
-10z m4285 -27 c-4 -21 -8 -39 -9 -40 -4 -5 -1585 -8 -1589 -3 -3 3 -8 20 -12
37 l-7 33 229 3 c125 1 491 3 812 5 l583 2 -7 -37z m-3853 -42 l-4 -49 -116
-4 -117 -3 -73 -48 c-40 -26 -111 -84 -157 -128 l-84 -79 -258 -2 c-318 -2
-1157 3 -1162 8 -2 2 0 19 3 38 l7 36 683 2 683 3 44 38 c24 20 94 82 154 137
l110 99 145 1 145 0 -3 -49z m2354 -80 c23 -10 63 -41 90 -68 92 -92 17 -84
763 -83 l661 1 0 -34 0 -34 -107 -6 c-58 -4 -372 -7 -696 -7 l-591 0 -64 70
c-36 38 -87 84 -113 101 -27 17 -49 35 -49 39 0 5 -3 15 -6 24 -9 23 59 21
112 -3z m-2926 -11 c0 -3 -9 -16 -20 -30 l-19 -25 -588 -3 c-323 -2 -625 -1
-670 3 -79 6 -83 8 -83 31 l0 24 363 2 c568 5 1017 3 1017 -2z m4438 -18 c3
-19 -5 -20 -260 -26 -581 -13 -1030 -16 -1049 -6 -10 6 -19 19 -19 30 0 19 14
19 611 19 336 0 613 2 616 5 3 3 26 4 52 2 37 -3 47 -8 49 -24z m-3864 -88 c3
-9 6 -36 6 -61 0 -44 -1 -45 -27 -39 -66 15 -181 18 -217 6 -22 -7 -77 -48
-133 -99 -52 -47 -105 -91 -117 -98 -15 -8 -135 -12 -399 -15 l-377 -3 0 30
c0 62 -15 60 384 63 l366 3 86 80 c157 146 160 147 315 148 89 1 108 -2 113
-15z m2397 -204 c34 -7 316 -11 767 -12 l712 -1 0 -32 0 -32 -112 -6 c-400
-23 -822 -29 -1121 -17 -542 23 -518 20 -538 55 -10 17 -18 33 -18 37 -2 16
234 22 310 8z m-3960 -10 l197 0 11 -31 c25 -72 25 -72 -106 -64 -65 4 -207 8
-315 9 l-198 1 0 49 0 49 107 -6 c58 -4 195 -7 304 -7z m1551 -6 c3 -2 4 -13
1 -23 -11 -41 -199 -81 -231 -49 -15 15 -15 43 -1 69 10 19 17 20 117 13 59
-3 110 -8 114 -10z m-305 -243 l-51 -34 -610 -4 c-336 -2 -694 -4 -796 -6
l-185 -2 -3 48 c-3 40 0 47 15 48 10 0 348 1 750 3 l733 2 52 37 52 36 47 -47
47 -47 -51 -34z m3584 49 c601 0 607 0 602 -20 -3 -11 -9 -17 -14 -14 -5 3 -6
-2 -3 -10 8 -21 -12 -24 -211 -30 -93 -4 -179 -8 -190 -10 -34 -6 -698 -9
-954 -4 l-244 5 -25 48 -24 48 228 -6 c125 -4 501 -7 835 -7z m-3261 -14 c0
-7 -3 -27 -6 -44 l-6 -30 -77 -1 -78 -1 -36 40 c-21 21 -37 42 -37 45 0 3 54
5 120 5 95 0 120 -3 120 -14z m-420 -201 c20 -11 30 -23 30 -39 l0 -23 -217
-7 c-120 -4 -468 -6 -774 -5 l-557 1 -6 36 c-3 19 -3 39 0 43 2 4 340 8 750 9
650 0 748 -2 774 -15z m408 -27 l3 -38 -45 0 c-30 0 -46 4 -46 13 0 6 -3 22
-6 34 -7 24 11 32 61 30 27 -2 30 -6 33 -39z m3845 0 c-3 -24 -8 -45 -10 -48
-3 -3 -344 -5 -759 -5 -618 0 -755 2 -759 13 -3 8 -5 29 -5 48 l0 34 769 0
769 0 -5 -42z m-4048 -34 c0 -13 -8 -20 -29 -22 -19 -2 -26 0 -21 8 4 6 13 9
20 6 9 -3 11 2 7 16 -3 15 -1 19 9 16 8 -3 14 -13 14 -24z m-1189 -141 c95
-428 249 -728 556 -1083 40 -46 66 -80 59 -75 -10 5 -12 4 -7 -3 4 -7 12 -12
18 -12 19 0 153 -134 150 -150 -2 -10 0 -11 5 -3 6 9 17 4 39 -16 16 -15 39
-33 51 -40 15 -7 20 -17 17 -29 -4 -11 -3 -13 3 -5 6 8 19 3 48 -17 22 -16 77
-52 123 -81 45 -29 85 -56 88 -60 6 -11 -60 23 -67 34 -6 9 -24 13 -76 16 -12
0 -24 10 -28 21 -3 11 -15 20 -25 20 -10 0 -22 -9 -25 -20 -8 -24 -14 -25 -42
-5 -14 10 -20 22 -17 33 4 13 3 14 -4 4 -14 -20 -92 47 -98 85 -4 21 -37 50
-42 35 -5 -16 -22 -5 -22 14 0 8 5 12 10 9 6 -3 10 -2 10 4 0 13 -37 24 -51
15 -7 -4 -9 -3 -6 3 9 14 -19 37 -33 28 -12 -7 -33 11 -43 38 -3 9 -10 16 -14
15 -7 -3 -82 72 -165 164 -54 60 -161 202 -217 288 -66 102 -177 331 -221 455
-27 78 -80 295 -80 333 0 8 17 12 50 12 46 0 50 -2 56 -27z m-426 -3 c0 -85
98 -410 181 -599 33 -74 57 -137 54 -139 -3 -3 -5 0 -5 6 0 7 -9 12 -19 12
-11 0 -31 14 -44 30 -14 17 -30 30 -35 30 -29 0 -164 372 -203 559 -23 115
-24 109 4 114 53 10 67 7 67 -13z m762 -3 c5 -6 6 -49 3 -94 l-7 -82 34 -21
c18 -11 42 -19 53 -18 22 3 24 31 9 171 l-6 68 37 -3 c36 -3 39 -6 55 -53 9
-27 20 -74 24 -104 4 -30 15 -70 25 -90 10 -20 28 -67 41 -106 32 -99 48 -128
175 -320 118 -180 208 -281 343 -390 60 -48 72 -62 67 -79 -4 -12 -9 -55 -12
-96 -4 -55 -8 -69 -14 -52 -5 13 -17 22 -29 22 -11 0 -23 7 -26 15 -4 10 -14
13 -30 9 -24 -6 -24 -5 6 24 16 17 30 37 30 44 0 17 -51 71 -104 110 l-39 28
-19 -27 c-10 -16 -18 -36 -18 -45 0 -25 -17 -22 -45 8 -31 34 -31 55 0 92 l25
29 -68 70 -67 69 -25 -24 c-36 -34 -80 -55 -119 -56 -29 -1 -42 8 -92 59 -127
133 -297 455 -370 702 -49 168 -52 151 27 156 86 5 126 0 136 -16z m326 11 c5
-7 19 -44 30 -83 42 -150 138 -358 207 -454 34 -46 44 -66 36 -74 -8 -8 -11
-6 -11 6 0 10 -8 17 -20 17 -12 0 -20 -7 -20 -16 0 -14 -3 -14 -15 -4 -30 25
-89 138 -150 285 -7 17 -18 44 -25 60 -27 66 -90 248 -90 261 0 17 44 19 58 2z
m213 -5 c5 -5 12 -53 18 -109 11 -120 31 -167 106 -254 67 -77 82 -111 66
-147 -9 -19 -9 -29 0 -39 6 -7 9 -19 7 -26 -3 -8 -10 -3 -18 12 -7 14 -26 40
-41 58 -16 18 -29 41 -29 52 0 11 -8 24 -19 29 -35 19 -81 108 -126 245 -25
75 -45 150 -45 167 0 31 1 31 37 26 20 -4 40 -10 44 -14z m3927 -46 c-10 -119
-153 -503 -251 -672 -39 -67 -114 -176 -201 -295 -54 -73 -357 -381 -409 -417
-23 -15 -79 -56 -125 -90 -45 -35 -99 -72 -120 -84 -20 -11 -64 -36 -97 -55
-52 -30 -98 -53 -190 -94 -38 -17 -94 -31 -125 -32 -16 -1 -30 -5 -30 -10 0
-4 -14 -8 -31 -8 -17 0 -28 -4 -24 -10 3 -6 -5 -10 -19 -10 -13 0 -26 -5 -28
-11 -2 -6 -13 -12 -23 -13 -11 -1 -37 -10 -59 -19 -21 -9 -50 -17 -65 -17 -14
-1 -43 -7 -63 -14 l-38 -14 0 48 0 47 46 7 c166 22 534 175 720 299 216 142
446 349 590 530 67 84 193 284 248 394 69 139 174 445 190 556 l7 47 51 0 51
0 -5 -63z m-1036 18 c-5 -49 -33 -129 -50 -142 -12 -10 -13 -13 -2 -13 11 0
11 -3 2 -12 -22 -22 -24 0 -7 89 20 112 21 115 42 111 13 -3 17 -12 15 -33z
m138 -1 c0 -45 -41 -167 -81 -242 -27 -52 -29 -50 -12 13 3 11 -7 2 -21 -20
-14 -22 -26 -46 -26 -52 0 -7 -7 -13 -15 -13 -14 0 -13 4 1 38 40 95 73 181
84 221 20 76 29 91 50 91 16 0 20 -7 20 -36z m176 10 c10 -39 -60 -238 -137
-391 -37 -73 -75 -143 -84 -155 l-16 -23 5 28 c4 22 0 30 -19 39 l-24 11 49
91 c56 105 135 300 151 375 10 47 13 51 40 51 22 0 30 -5 35 -26z m234 1 c0
-15 -7 -40 -16 -56 -8 -17 -18 -52 -21 -79 -5 -47 -5 -50 23 -61 18 -6 35 -7
44 -2 26 16 50 76 50 128 0 95 0 95 101 95 l89 0 -6 -27 c-22 -100 -107 -321
-178 -469 -164 -337 -363 -582 -664 -814 -103 -80 -291 -199 -314 -200 -3 0
-4 9 -1 20 3 11 9 18 13 15 12 -7 79 73 101 120 28 61 23 145 -15 236 -5 12
11 30 61 70 108 85 259 236 307 308 80 121 163 255 186 301 30 59 115 309 130
383 l11 57 50 0 c46 0 49 -2 49 -25z m903 18 c13 -22 -54 -287 -114 -452 -52
-141 -179 -398 -188 -382 -5 8 -16 11 -24 8 -12 -4 -14 -2 -10 10 12 32 -17 2
-37 -38 -11 -21 -22 -39 -24 -39 -3 0 26 64 63 143 132 275 194 451 237 675
l17 82 38 0 c21 0 40 -3 42 -7z m-4132 -57 c5 3 9 0 9 -6 0 -5 14 -19 32 -30
l31 -19 -27 -7 c-33 -8 -52 8 -60 51 -4 17 -3 24 0 17 3 -6 10 -10 15 -6z
m3889 -21 c34 -18 38 -41 15 -85 -18 -35 -17 -35 -55 -15 -32 17 -36 34 -19
84 12 35 18 37 59 16z m-5150 -93 c19 -54 7 -76 -43 -80 -32 -3 -39 1 -57 30
-28 47 -26 74 8 87 52 19 76 10 92 -37z m5099 -111 c12 -8 13 -16 3 -50 -7
-22 -17 -43 -22 -46 -18 -11 -50 15 -50 41 0 53 32 78 69 55z m-5050 -44 c6
-8 14 -28 17 -44 5 -25 1 -34 -17 -47 -50 -35 -109 -7 -109 51 0 42 82 72 109
40z m4993 -104 c22 -20 23 -37 1 -74 -19 -32 -38 -36 -67 -14 -20 15 -20 16 2
60 24 49 35 54 64 28z m-4931 -82 c16 -16 29 -37 29 -46 0 -16 -43 -65 -57
-65 -4 0 -23 22 -41 48 l-32 47 25 23 c34 29 41 28 76 -7z m3869 -26 c0 -8 -4
-15 -10 -15 -5 0 -7 7 -4 15 4 8 8 15 10 15 2 0 4 -7 4 -15z m-2894 -102 c-11
-11 -17 4 -9 23 7 18 8 18 11 1 2 -10 1 -21 -2 -24z m3874 -13 c5 -9 3 -28 -5
-48 -13 -30 -16 -31 -42 -20 -46 19 -47 25 -18 74 26 45 29 46 42 28 8 -10 18
-26 23 -34z m-4785 0 c31 -44 29 -61 -11 -86 -26 -18 -27 -18 -50 9 -34 40
-40 74 -19 97 27 30 49 24 80 -20z m969 24 c3 -8 2 -12 -4 -9 -6 3 -10 10 -10
16 0 14 7 11 14 -7z m46 -49 c13 -14 21 -25 18 -25 -3 0 -17 11 -32 25 -15 14
-23 25 -18 25 5 0 19 -11 32 -25z m2389 -9 c-10 -9 -260 -153 -319 -183 -40
-21 -72 -31 -83 -27 -28 10 -19 21 27 33 67 17 181 71 270 129 44 29 87 52 95
52 8 0 12 -2 10 -4z m125 -39 c-36 -45 -149 -140 -229 -192 -148 -96 -190
-124 -222 -150 -22 -19 -48 -28 -87 -32 l-56 -6 0 32 c0 33 0 33 40 26 47 -8
105 16 156 64 17 16 62 50 100 75 38 25 103 70 144 101 93 69 163 115 168 110
3 -2 -4 -15 -14 -28z m-2467 -44 c-3 -10 -5 -4 -5 12 0 17 2 24 5 18 2 -7 2
-21 0 -30z m-972 -33 l29 -30 -23 -24 c-33 -36 -59 -39 -87 -11 -31 31 -30 49
4 74 36 27 43 26 77 -9z m4599 4 c21 -8 20 -47 -2 -74 -16 -19 -21 -20 -45 -9
-32 14 -33 21 -10 60 18 29 29 34 57 23z m-4814 -45 c0 -6 -4 -7 -10 -4 -5 3
-10 11 -10 16 0 6 5 7 10 4 6 -3 10 -11 10 -16z m3676 -1 c-12 -71 -66 -118
-148 -131 -52 -8 -54 3 -6 32 24 14 68 44 98 68 63 49 59 47 56 31z m1355 -31
c-10 -9 -11 -8 -5 6 3 10 9 15 12 12 3 -3 0 -11 -7 -18z m-3516 -7 c18 -8 17
-9 -7 -9 -15 -1 -30 4 -33 9 -7 12 12 12 40 0z m-149 -25 c38 -22 92 -81 83
-89 -26 -22 -52 -26 -72 -12 -55 37 -72 61 -69 94 2 17 6 32 9 32 4 0 25 -11
49 -25z m-1057 -51 c37 -31 38 -40 9 -71 -28 -30 -36 -29 -75 9 -39 38 -41 51
-11 72 31 22 41 20 77 -10z m4417 3 c26 -23 26 -24 10 -54 -22 -43 -31 -47
-66 -26 -36 21 -37 34 -8 73 26 36 29 36 64 7z m-4282 -164 l38 -43 -31 -30
c-27 -27 -33 -29 -51 -18 -12 7 -30 28 -42 46 l-20 33 28 30 c15 16 31 28 34
27 3 -2 23 -22 44 -45z m1207 14 c55 -37 81 -91 76 -161 -3 -53 -7 -62 -39
-92 -35 -31 -90 -54 -134 -54 -26 0 -110 53 -123 79 -18 33 -24 106 -12 143
31 93 154 138 232 85z m1866 -29 c57 -55 70 -146 28 -196 -67 -80 -191 -74
-244 11 -26 42 -26 89 -2 142 45 99 141 118 218 43z m1092 -49 c-37 -53 -47
-55 -80 -23 l-29 30 36 43 37 42 27 -33 c28 -33 28 -33 9 -59z m-1439 2 c0
-21 -19 -31 -55 -31 -23 0 -38 -23 -39 -59 -1 -8 -7 -16 -14 -19 -10 -3 -12 8
-10 44 3 47 3 47 53 65 64 22 65 22 65 0z m-1287 -4 c10 -6 20 -29 24 -50 4
-30 3 -37 -10 -37 -19 0 -32 22 -40 68 -7 34 -1 39 26 19z m1240 -54 c-7 -2
-19 -2 -25 0 -7 3 -2 5 12 5 14 0 19 -2 13 -5z m1336 -44 l34 -31 -42 -42 -41
-41 -31 33 -31 33 34 39 c18 21 35 39 38 39 3 0 20 -13 39 -30z m-3854 -19
c17 -19 17 -21 0 -40 -22 -24 -55 -29 -35 -5 7 8 10 25 6 40 -8 30 4 32 29 5z
m1545 -325 c0 -177 -4 -275 -10 -275 -5 0 -10 -11 -10 -24 0 -13 -6 -26 -13
-29 -16 -6 -41 -215 -36 -305 3 -47 1 -62 -10 -62 -9 0 -11 7 -7 23 3 12 6
230 6 485 l0 462 40 0 40 0 0 -275z m192 -202 c-2 -263 -5 -484 -7 -490 -2 -7
-20 -13 -40 -13 l-35 0 0 378 c0 207 3 428 7 490 l6 112 36 0 36 0 -3 -477z
m183 456 c10 -31 -6 -700 -16 -693 -5 3 -9 14 -9 25 0 32 -17 21 -24 -15 -4
-19 -9 -65 -12 -103 -3 -37 -8 -70 -10 -72 -6 -7 -4 832 2 857 9 30 60 31 69
1z m693 -3 c6 -14 22 -32 36 -41 15 -10 23 -22 19 -31 -5 -13 -8 -12 -24 2
-18 16 -23 16 -72 1 -66 -21 -117 -52 -117 -72 0 -8 -4 -15 -10 -15 -6 0 -10
26 -10 58 l0 59 78 31 c42 17 80 31 83 31 3 1 11 -10 17 -23z m-1322 -7 l43
-11 -4 -45 c-2 -25 -6 -48 -9 -51 -3 -3 -32 7 -63 21 -51 24 -58 30 -56 54 3
42 12 56 29 49 9 -4 36 -11 60 -17z m813 -206 c-2 -241 -14 -602 -17 -495 -2
53 -5 62 -21 62 -17 0 -18 -11 -19 -141 -1 -79 3 -149 9 -160 8 -16 6 -19 -11
-19 -20 0 -20 4 -20 483 0 266 3 487 7 490 3 4 21 7 40 7 l33 0 -1 -227z m192
-15 c2 -134 2 -345 0 -471 -3 -214 -4 -228 -23 -238 -11 -6 -23 -8 -26 -4 -3
3 4 8 16 12 20 5 22 11 22 84 0 64 -3 79 -15 79 -8 0 -15 7 -15 15 0 26 -19
16 -26 -12 -3 -16 -7 -32 -9 -38 -2 -5 -4 176 -4 403 l-1 412 39 0 39 0 3
-242z m-2157 171 c30 -36 32 -46 10 -77 -21 -30 -36 -28 -72 13 -38 41 -40 58
-10 79 32 22 43 20 72 -15z m3548 -69 l-37 -37 -27 25 c-16 14 -28 30 -28 36
0 5 14 25 32 43 l32 33 33 -32 32 -31 -37 -37z m-762 1 c0 -8 -98 -51 -115
-51 -3 0 -5 7 -5 16 0 12 6 15 25 10 14 -4 25 -3 25 2 0 4 15 13 33 19 17 5
33 11 35 12 1 0 2 -3 2 -8z m-2654 -80 c2 -2 10 1 17 7 11 9 19 6 36 -12 19
-20 21 -28 11 -46 l-12 -22 -26 24 c-15 12 -32 30 -39 38 -11 13 -12 13 -13
-2 0 -10 -7 -18 -15 -18 -20 0 -19 15 2 46 15 24 17 24 26 7 6 -10 11 -20 13
-22z m3260 -13 c5 -17 -3 -30 -39 -65 -26 -24 -52 -41 -60 -37 -11 4 -47 64
-47 79 0 11 79 44 107 45 24 0 33 -5 39 -22z m-2831 3 c3 -5 1 -12 -5 -16 -5
-3 -10 1 -10 9 0 18 6 21 15 7z m2012 -7 c-3 -3 -12 -4 -19 -1 -8 3 -5 6 6 6
11 1 17 -2 13 -5z m-2447 -34 c0 -13 -11 -13 -30 0 -12 8 -11 10 8 10 12 0 22
-4 22 -10z m2182 -20 c3 -16 1 -30 -4 -30 -4 0 -8 14 -8 30 0 17 2 30 4 30 2
0 6 -13 8 -30z m873 -83 c20 -38 20 -38 1 -53 -28 -20 -73 -18 -86 5 -16 31
-12 59 13 76 31 22 49 15 72 -28z m-2346 17 c13 -12 -8 -10 -29 2 l-25 15 25
-7 c14 -3 27 -8 29 -10z m-439 -9 c33 -17 37 -32 17 -59 -9 -12 -23 -17 -41
-14 -39 4 -53 29 -38 62 13 30 22 32 62 11z m540 -35 c0 -10 -38 -1 -45 10 -2
4 7 5 20 2 14 -2 25 -8 25 -12z m85 -14 c28 -8 41 -14 30 -14 -21 0 -107 25
-90 27 6 0 33 -6 60 -13z m-441 -47 c33 -15 40 -37 21 -65 -17 -27 -32 -29
-70 -12 -28 12 -31 25 -13 63 12 28 25 31 62 14z m2390 -14 c22 -34 20 -42
-14 -60 -73 -38 -80 -38 -95 -3 -16 40 -13 45 39 68 53 24 51 24 70 -5z
m-2128 -100 c25 -16 31 -48 15 -74 -8 -12 -16 -12 -55 -1 -56 15 -65 26 -59
69 5 32 7 33 40 28 19 -4 46 -13 59 -22z m1909 -26 c6 -25 3 -28 -41 -43 -65
-22 -79 -20 -93 11 -14 31 -10 36 54 61 55 22 69 17 80 -29z m-1608 -51 c31
-29 30 -72 -3 -103 -35 -32 -74 -32 -113 1 -23 19 -31 34 -31 58 0 71 90 98
147 44z m1324 3 c36 -36 36 -51 2 -91 -38 -46 -61 -52 -104 -28 -69 38 -75 92
-16 129 46 27 83 24 118 -10z m-742 -305 c2 -48 -12 -20 -15 31 -3 37 -1 42 5
23 5 -14 9 -38 10 -54z m371 5 c0 -6 -4 -13 -10 -16 -5 -3 -10 1 -10 9 0 9 5
16 10 16 6 0 10 -4 10 -9z"/>
<path d="M4504 7225 c-41 -18 -57 -40 -49 -65 8 -24 35 -26 78 -4 45 23 67 44
67 66 0 22 -48 24 -96 3z"/>
<path d="M4290 7151 c-30 -16 -65 -40 -78 -53 l-22 -25 21 -26 c26 -34 42 -34
104 2 71 41 88 63 80 100 -8 40 -31 40 -105 2z"/>
<path d="M4075 7036 c-44 -19 -95 -65 -95 -85 0 -21 30 -51 51 -51 8 0 36 13
62 30 52 33 61 62 30 98 -16 19 -21 20 -48 8z"/>
<path d="M3875 6888 c-37 -20 -125 -99 -125 -112 0 -17 43 -56 62 -56 9 0 39
27 68 59 51 60 51 60 35 90 -8 17 -17 31 -18 31 -1 0 -11 -6 -22 -12z"/>
<path d="M3646 6698 c-41 -31 -86 -96 -79 -115 5 -13 2 -15 -11 -10 -24 9 -62
-31 -75 -79 -9 -33 -8 -41 6 -51 9 -7 25 -13 34 -13 15 0 199 186 207 211 4
10 -36 79 -46 79 -4 0 -20 -10 -36 -22z"/>
<path d="M6100 7008 c-25 -42 -25 -44 5 -73 31 -32 50 -32 71 0 17 26 12 58
-14 88 -22 25 -40 21 -62 -15z"/>
<path d="M6449 6827 c-20 -15 -39 -51 -39 -71 0 -24 37 -56 63 -56 33 0 57 30
57 72 0 54 -43 84 -81 55z"/>
<path d="M4883 6528 c3 -117 3 -232 0 -255 l-6 -43 -343 0 -344 0 0 -95 0 -95
150 0 150 0 2 -162 c0 -90 0 -509 -1 -933 -1 -423 -1 -776 -1 -782 0 -10 -31
-13 -124 -13 -68 0 -136 -3 -152 -6 l-29 -6 -1 -96 0 -97 342 3 341 3 7 -23
c3 -13 6 -123 6 -245 l0 -223 55 0 55 0 0 239 0 239 153 6 c83 3 170 4 192 2
l40 -4 6 -68 c4 -38 7 -146 8 -241 l1 -172 50 1 50 0 2 236 3 237 150 12 c83
6 175 19 205 28 92 28 188 85 251 148 70 70 99 116 141 228 28 75 31 96 31
189 0 180 -47 310 -153 424 -74 79 -115 104 -228 141 -46 15 -81 32 -80 37 2
6 35 29 73 50 214 121 305 254 305 448 0 148 -37 257 -122 363 -125 156 -278
227 -490 227 l-76 0 -7 93 c-3 50 -5 165 -3 255 l3 163 -54 -3 -53 -3 -2 -250
-1 -250 -196 -3 -196 -2 -7 61 c-3 34 -6 149 -6 255 l0 194 -52 0 -51 0 6
-212z m480 -401 c283 -2 370 -6 380 -16 10 -11 3 -12 -38 -7 -27 3 -95 7 -150
10 l-100 5 100 -15 c59 -9 130 -13 173 -10 55 4 81 2 103 -9 32 -17 179 -142
179 -153 0 -4 -35 -13 -78 -20 l-78 -12 -64 63 c-129 125 -180 136 -665 137
-177 1 -292 5 -280 10 16 7 12 9 -20 11 l-40 2 40 6 c22 3 69 5 105 4 36 -2
230 -4 433 -6z m-843 -11 c0 -22 -225 -23 -233 -1 -6 13 9 15 113 15 96 0 120
-3 120 -14z m230 -111 l0 -105 -80 0 -80 0 0 105 0 105 80 0 80 0 0 -105z
m836 -9 c57 -28 97 -58 145 -106 89 -90 113 -149 114 -281 0 -90 -2 -99 -38
-171 -43 -87 -104 -148 -196 -194 l-56 -29 -358 -5 c-197 -3 -361 -3 -363 -1
-7 7 -4 721 3 779 l6 53 332 -3 331 -3 80 -39z m480 -182 c11 -15 19 -54 22
-100 l5 -74 -66 0 -65 0 -25 68 c-44 117 -45 109 15 120 85 15 96 14 114 -14z
m-1320 -25 c-3 -17 -6 -60 -6 -95 l0 -64 -75 0 -75 0 0 95 0 95 81 0 82 0 -7
-31z m1329 -262 c-8 -38 -46 -119 -60 -129 -5 -4 -21 -7 -35 -7 -23 1 -22 2 5
8 32 7 46 38 23 52 -7 5 -30 9 -50 9 -41 0 -43 4 -32 58 6 30 9 31 62 34 31 2
64 4 75 5 16 2 17 -3 12 -30z m-1335 -67 l0 -90 -75 0 -75 0 0 90 0 90 75 0
75 0 0 -90z m1180 -44 c0 -2 -7 -6 -15 -10 -8 -3 -15 -1 -15 4 0 6 7 10 15 10
8 0 15 -2 15 -4z m17 -22 c-3 -3 -12 -4 -19 -1 -8 3 -5 6 6 6 11 1 17 -2 13
-5z m-1197 -204 l0 -90 -75 0 -75 0 0 90 0 90 75 0 75 0 0 -90z m-8 -270 l-7
-95 -62 -3 c-54 -3 -62 0 -68 17 -8 25 -2 121 7 121 4 0 3 11 -2 25 -7 19 -6
27 3 30 18 7 132 11 134 5 2 -3 -1 -48 -5 -100z m940 52 c80 -39 179 -140 217
-221 23 -50 26 -68 26 -172 0 -111 -1 -117 -34 -182 -41 -82 -123 -162 -212
-208 l-64 -34 -387 -3 -388 -2 0 430 0 431 388 -3 387 -3 67 -33z m352 -20 c2
-4 1 -14 -3 -21 -6 -9 -11 -10 -15 -2 -4 6 -1 11 6 11 9 0 9 3 -2 10 -9 6 -10
10 -3 10 6 0 14 -4 17 -8z m55 -78 c37 -53 37 -54 11 -54 -26 0 -58 59 -38 71
8 5 9 9 2 9 -7 0 -15 7 -18 16 -10 26 12 6 43 -42z m-1364 -154 c-45 -11 -125
-11 -125 0 0 6 32 10 78 9 56 -1 69 -3 47 -9z"/>
<path d="M5120 5911 l-165 -6 -3 -35 c-2 -19 0 -149 3 -287 l7 -253 267 0
c267 0 267 0 319 26 28 14 71 47 95 74 107 119 95 286 -29 399 -88 81 -163 93
-494 82z m319 -155 c-2 -3 -65 -6 -139 -8 -92 -2 -139 -7 -148 -15 -7 -7 -9
-13 -4 -13 5 0 12 -11 14 -25 4 -19 1 -25 -13 -25 -21 0 -24 -11 -8 -27 8 -8
8 -16 -1 -30 -11 -17 -11 -17 -6 0 3 11 3 24 -1 30 -5 7 -11 -5 -14 -28 -4
-27 -7 -11 -8 53 l-1 92 167 0 c91 0 164 -2 162 -4z"/>
<path d="M4954 4598 c3 -161 5 -301 5 -311 1 -17 17 -18 299 -15 l297 3 50 26
c127 67 189 160 189 279 0 113 -76 226 -189 280 -49 23 -57 24 -353 27 l-302
3 4 -292z"/>
<path d="M6300 6211 c0 -6 4 -13 10 -16 6 -3 7 1 4 9 -7 18 -14 21 -14 7z"/>
<path d="M3271 6054 c-12 -15 -21 -39 -21 -54 0 -33 38 -70 71 -70 32 0 69 39
69 72 0 38 -36 78 -70 78 -19 0 -36 -9 -49 -26z"/>
<path d="M3820 3050 c0 -5 7 -10 16 -10 8 0 12 5 9 10 -3 6 -10 10 -16 10 -5
0 -9 -4 -9 -10z"/>
<path d="M3258 4223 c-15 -10 -30 -23 -32 -30 -13 -32 41 -113 74 -113 18 0
40 39 40 71 0 31 -28 89 -42 89 -7 0 -25 -8 -40 -17z"/>
<path d="M3365 3980 c-16 -17 -16 -21 3 -64 11 -24 32 -55 47 -68 15 -13 45
-49 67 -82 39 -56 42 -58 75 -53 20 4 38 9 41 12 3 3 -10 22 -29 43 -60 63
-79 93 -79 127 0 40 -24 70 -71 89 -34 14 -38 14 -54 -4z"/>
<path d="M5916 2725 c22 -17 38 -20 29 -5 -3 6 -1 10 4 10 6 0 11 -8 11 -17 0
-15 2 -16 10 -3 11 18 -5 30 -44 30 -28 0 -29 -1 -10 -15z"/>
<path d="M6690 4020 c0 -5 5 -10 10 -10 6 0 10 5 10 10 0 6 -4 10 -10 10 -5 0
-10 -4 -10 -10z"/>
<path d="M7056 4217 c-39 -65 -30 -127 17 -127 30 0 41 9 61 48 24 47 17 82
-21 105 l-32 18 -25 -44z"/>
<path d="M6953 3988 c-37 -41 -44 -64 -31 -93 10 -23 10 -28 -4 -36 -16 -9
-88 -101 -88 -113 0 -12 58 23 77 46 10 13 34 35 55 50 20 15 46 44 58 64 l23
36 -35 34 -34 35 -21 -23z"/>
<path d="M6724 3658 c-82 -87 -81 -84 -49 -118 16 -17 34 -30 40 -30 6 0 34
25 63 56 l53 56 -20 44 c-12 24 -25 44 -29 44 -4 0 -30 -24 -58 -52z"/>
<path d="M6506 3449 c-33 -27 -64 -53 -68 -57 -10 -10 19 -92 32 -92 13 0 138
109 144 126 7 19 -20 74 -37 73 -6 0 -39 -23 -71 -50z"/>
<path d="M7737 3803 c-11 -10 -8 -43 3 -43 6 0 10 11 10 25 0 26 -2 29 -13 18z"/>
<path d="M4240 3338 c-13 -14 -20 -35 -20 -60 0 -32 4 -40 26 -48 37 -14 52
-12 74 10 39 39 12 120 -40 120 -10 0 -28 -10 -40 -22z"/>
<path d="M6112 3363 c-7 -3 -19 -18 -27 -33 -26 -50 10 -107 60 -94 47 12 58
79 19 118 -16 16 -29 19 -52 9z"/>
</g>
</svg>
