<?xml version="1.0" standalone="no"?>
<!DOCTYPE svg PUBLIC "-//W3C//DTD SVG 20010904//EN"
 "http://www.w3.org/TR/2001/REC-SVG-20010904/DTD/svg10.dtd">
<svg version="1.0" xmlns="http://www.w3.org/2000/svg"
 width="1024.000000pt" height="1024.000000pt" viewBox="0 0 1024.000000 1024.000000"
 preserveAspectRatio="xMidYMid meet">

<g transform="translate(0.000000,1024.000000) scale(0.100000,-0.100000)"
fill="#000000" stroke="none">
<path d="M0 5120 l0 -5120 5120 0 5120 0 0 5120 0 5120 -5120 0 -5120 0 0
-5120z m5781 2946 c535 -75 1076 -341 1472 -725 107 -104 279 -298 325 -369
14 -20 53 -75 87 -122 202 -275 345 -574 425 -889 18 -73 42 -231 55 -373 4
-41 16 -86 31 -115 24 -48 24 -50 25 -353 0 -323 -11 -451 -50 -580 -10 -36
-34 -123 -51 -195 -100 -411 -269 -794 -495 -1122 -75 -109 -263 -338 -357
-434 -370 -381 -878 -689 -1373 -832 -337 -98 -425 -112 -850 -136 -142 -8
-316 -1 -364 14 -9 2 -65 11 -124 20 -121 16 -376 84 -572 152 -311 107 -633
296 -945 554 -164 135 -362 356 -517 575 -224 318 -355 649 -397 1004 -8 69
-25 152 -37 185 -17 49 -22 89 -26 225 -5 182 -5 183 -4 455 1 184 16 300 42
331 5 6 14 47 19 90 8 72 67 291 103 389 150 401 404 833 675 1147 99 114 266
281 379 378 40 35 71 66 68 70 -2 3 2 7 9 7 7 0 60 34 117 75 141 102 251 168
460 275 194 99 255 121 529 189 197 50 261 56 407 40 82 -8 82 -8 94 17 17 38
79 43 189 13 18 -5 31 -1 48 14 12 11 22 18 22 14 0 -4 8 0 18 9 9 9 40 18 67
20 89 8 387 -2 496 -17z"/>
<path d="M5183 8025 c-17 -14 -17 -14 2 -15 11 0 26 4 33 9 11 7 11 9 -1 14
-8 3 -23 -1 -34 -8z"/>
<path d="M5329 8003 c19 -17 21 -29 23 -238 4 -299 -8 -976 -17 -998 -7 -16
-2 -17 51 -10 116 15 273 8 354 -16 140 -43 310 -136 374 -205 36 -40 103
-152 139 -231 76 -171 100 -305 78 -441 -13 -83 -64 -246 -87 -277 -15 -21
-16 -21 -9 13 5 29 0 23 -29 -32 -41 -80 -93 -154 -159 -225 l-48 -51 60 -32
c106 -57 175 -143 238 -297 73 -182 95 -343 69 -513 -15 -93 -53 -236 -62
-228 -2 3 7 56 21 118 15 62 25 125 23 139 -2 14 -14 -24 -26 -85 -33 -156
-60 -228 -121 -317 -107 -159 -262 -300 -417 -379 -127 -65 -162 -76 -329
-106 l-150 -28 -7 -39 c-9 -50 -8 -248 2 -340 4 -42 5 1 3 105 -3 96 0 195 5
220 7 32 10 -34 9 -240 0 -158 -3 -258 -7 -225 -4 33 -7 -75 -8 -240 0 -165
-3 -355 -7 -423 -9 -134 -12 -141 -77 -157 -30 -8 -36 -20 -15 -28 8 -4 8 -6
0 -6 -6 -1 -20 10 -31 24 -18 23 -20 49 -25 422 -4 219 -11 475 -16 568 -5 94
-11 247 -12 340 l-2 170 44 7 c24 4 100 12 168 18 276 24 486 138 666 363 121
150 159 271 159 497 -1 130 -4 153 -27 225 -54 161 -82 196 -305 375 -57 45
-53 65 33 161 144 160 219 301 252 474 32 166 -1 326 -98 475 -50 77 -135 164
-154 156 -8 -3 -17 0 -21 6 -4 7 -3 8 4 4 7 -4 12 -5 12 -2 0 8 -128 71 -175
86 -27 9 -110 13 -281 12 -217 0 -243 2 -246 16 -2 10 0 98 4 197 13 297 19
1153 8 1126 -9 -20 -12 -22 -28 -10 -9 8 -25 24 -35 37 -16 19 -66 52 -80 52
-3 0 -4 -11 -4 -25 0 -13 3 -22 8 -19 12 7 12 -9 9 -286 -1 -129 -6 -242 -11
-250 -5 -9 -9 21 -11 80 l-2 95 -3 -88 c-4 -100 -3 -98 -100 -111 l-53 -7 0
234 0 233 -47 15 c-31 10 -49 21 -51 33 -3 11 0 16 7 12 6 -4 11 -5 11 -2 0
13 -82 56 -106 56 -26 0 -26 0 13 -35 l39 -34 -4 -303 c-2 -167 -8 -307 -13
-312 -6 -6 -9 -5 -9 4 0 9 -10 4 -28 -13 -32 -31 -76 -42 -111 -29 -27 10 -34
5 -104 -60 -25 -23 -66 -46 -116 -63 -155 -54 -403 -214 -540 -347 -42 -41
-110 -100 -152 -131 -77 -56 -113 -94 -143 -154 -9 -18 -51 -77 -94 -130 -102
-129 -244 -344 -298 -454 -24 -49 -44 -92 -44 -95 0 -3 -8 -18 -19 -32 -10
-15 -22 -42 -26 -60 -6 -31 -5 -32 17 -27 12 3 117 14 231 24 115 11 212 23
215 27 4 4 -5 4 -20 2 -37 -7 -37 17 0 57 16 17 32 42 35 57 4 15 14 33 22 42
8 8 15 18 15 21 0 4 11 20 25 37 14 16 25 38 25 48 0 10 5 20 11 22 7 2 2 34
-15 93 -14 49 -26 93 -26 97 0 35 93 -46 213 -185 48 -55 72 -74 137 -104 43
-20 77 -40 74 -45 -3 -4 -22 -8 -42 -9 -20 0 -59 -8 -87 -18 l-50 -18 80 -18
c105 -23 115 -29 115 -68 0 -56 -9 -58 -79 -26 -35 16 -66 28 -68 25 -2 -2 0
-21 6 -43 15 -53 -3 -110 -45 -150 -60 -57 -138 -53 -187 8 l-22 27 -95 -11
c-83 -10 -90 -12 -55 -18 l40 -6 -35 -2 c-358 -14 -698 -34 -785 -45 -60 -8
-172 -18 -248 -21 -124 -5 -138 -4 -144 12 -29 74 196 652 361 928 20 33 27
50 17 38 -24 -28 -27 -28 -34 -2 -4 13 -10 18 -17 14 -9 -5 -10 -1 -5 16 4 13
11 26 14 29 4 3 15 21 24 41 9 20 23 42 32 49 8 7 15 17 15 22 0 22 -31 -17
-86 -110 -31 -53 -69 -115 -84 -137 -54 -80 -170 -320 -233 -485 -75 -195
-121 -364 -121 -450 -1 -97 7 -126 38 -134 30 -7 264 6 661 38 165 14 372 30
460 36 266 18 419 31 438 36 22 7 63 -19 77 -48 10 -21 10 -21 -3 -5 -19 23
-26 22 -25 -5 4 -64 -2 -85 -28 -97 -15 -6 -88 -16 -163 -22 -75 -6 -149 -14
-166 -19 -16 -5 -73 -11 -125 -15 -474 -28 -706 -48 -716 -60 -8 -10 -46 -13
-165 -12 -84 1 -189 -2 -231 -7 l-78 -8 0 86 c0 50 -4 86 -10 86 -15 0 -24
-48 -24 -135 -1 -75 2 -85 34 -138 l34 -57 52 0 c29 0 96 4 150 10 104 11 882
64 1094 76 99 5 129 10 145 24 41 37 91 60 129 60 33 0 46 -7 84 -45 44 -44
45 -46 39 -95 -3 -27 -13 -62 -22 -77 l-16 -28 5 35 c4 30 3 32 -7 16 -7 -11
-24 -33 -39 -51 -15 -18 -25 -35 -22 -38 3 -3 -4 -8 -15 -12 -31 -10 -94 12
-124 43 l-27 28 -83 -12 c-46 -7 -125 -15 -177 -19 -155 -10 -515 -47 -520
-52 -3 -3 42 -3 100 0 93 5 98 4 40 -4 -36 -6 -101 -8 -145 -5 -44 3 -154 -1
-245 -8 -91 -8 -229 -18 -308 -21 l-142 -7 6 70 c5 57 4 74 -10 93 -17 23 -17
20 -14 -86 3 -99 6 -116 33 -170 l30 -60 65 2 c66 2 370 23 700 49 102 7 259
19 350 24 91 6 248 17 350 25 163 12 186 12 196 -1 17 -22 24 -84 15 -124 -8
-31 -9 -27 -10 32 -1 37 -5 70 -11 73 -6 4 -10 -18 -10 -58 l0 -64 -47 -7
c-69 -8 -253 -24 -438 -36 -88 -6 -236 -17 -330 -25 -93 -8 -262 -21 -375 -30
-113 -8 -260 -20 -327 -26 -67 -6 -126 -8 -131 -5 -5 3 -12 29 -15 57 -11 87
-27 84 -27 -5 0 -70 3 -84 40 -154 22 -43 42 -95 45 -116 4 -21 8 -47 10 -57
3 -14 -2 -19 -17 -19 -18 0 -19 -4 -13 -52 11 -80 71 -316 99 -390 35 -96 187
-392 242 -473 225 -335 496 -609 804 -812 162 -107 221 -139 412 -224 151 -67
251 -104 403 -150 78 -23 303 -51 369 -46 58 5 74 3 96 -13 32 -23 149 -45
188 -35 15 3 46 16 69 27 39 19 46 20 69 7 35 -18 166 -18 219 1 25 9 78 15
140 15 85 0 106 3 143 23 24 13 94 36 157 53 168 44 471 161 624 240 437 228
781 515 1103 919 255 321 462 728 561 1105 99 375 127 538 127 749 0 83 -2 92
-26 117 l-25 26 25 -4 c20 -4 26 0 31 20 30 118 -66 679 -160 935 -112 307
-210 503 -353 700 -272 374 -611 664 -989 844 -127 60 -158 71 -110 39 l28
-18 -23 -7 c-13 -3 -36 -6 -53 -7 -17 -1 -22 -3 -12 -6 18 -5 24 -23 6 -23 -5
0 -7 -6 -3 -12 6 -10 5 -10 -7 -1 -11 9 -19 9 -26 2 -6 -6 -19 -6 -39 1 -17 7
-25 7 -19 1 16 -16 117 -51 128 -44 6 3 7 2 4 -4 -3 -5 15 -20 41 -32 101 -49
295 -165 364 -218 177 -137 381 -349 530 -553 175 -240 341 -603 422 -925 30
-120 42 -207 27 -185 -6 8 -11 29 -12 45 0 17 -5 41 -10 55 -6 17 -7 9 -3 -26
7 -61 4 -63 -104 -71 -61 -5 -72 -8 -67 -22 5 -14 4 -14 -9 -1 -8 8 -27 62
-41 120 -49 195 -96 324 -177 485 -45 88 -92 177 -105 197 -26 42 -29 53 -11
42 7 -4 8 -3 4 5 -4 6 -11 9 -15 6 -9 -5 -156 198 -181 250 -17 33 -240 256
-312 313 -27 20 -48 42 -48 49 0 17 -80 74 -93 66 -5 -3 -7 -2 -4 3 3 6 -3 16
-15 23 -16 10 -19 10 -13 -1 3 -7 -3 -1 -15 15 -12 15 -26 25 -31 22 -8 -6
-99 42 -99 52 0 3 17 -5 37 -17 20 -12 31 -15 25 -7 -20 24 -111 69 -124 61
-7 -4 -10 -4 -6 1 16 17 -137 96 -194 99 -40 3 -153 44 -145 52 2 3 21 -3 42
-11 20 -9 39 -14 41 -12 7 7 -107 48 -116 42 -5 -3 -80 11 -167 31 -87 20
-189 42 -228 48 -81 13 -82 15 -84 140 l-1 79 -65 63 c-39 39 -73 64 -86 64
l-21 0 21 -17z m353 -533 c49 -5 106 -18 130 -30 23 -11 57 -20 76 -20 18 0
52 -11 75 -24 23 -13 67 -29 97 -36 30 -7 68 -19 84 -27 25 -13 28 -19 23 -50
-5 -26 -1 -40 13 -56 11 -11 20 -27 20 -34 0 -7 4 -13 9 -13 4 0 39 -27 77
-61 38 -34 83 -70 99 -81 27 -18 27 -17 -5 13 -20 19 -42 42 -49 52 -13 16
-11 17 19 15 18 -1 35 -8 37 -15 3 -7 8 -11 12 -9 12 8 39 -20 55 -58 l16 -38
-28 7 c-22 5 -17 -2 33 -47 94 -83 400 -374 434 -413 l31 -36 -1 -332 c-1
-183 -5 -375 -9 -427 -5 -59 -7 64 -5 322 2 244 -1 420 -6 424 -5 3 -10 -107
-10 -268 -1 -150 -3 -407 -5 -570 l-3 -298 28 0 c38 0 90 -38 113 -82 17 -32
18 -44 9 -95 -13 -71 -51 -127 -116 -171 -59 -40 -96 -41 -165 -4 -93 48 -113
123 -60 229 32 65 49 83 95 107 25 13 27 16 9 16 -19 0 -22 8 -28 63 -3 34 -9
151 -13 260 -4 148 -9 200 -19 204 -7 2 -16 19 -19 36 -4 18 -13 42 -21 55 -8
12 -11 22 -7 22 4 0 -5 12 -19 28 -14 15 -37 50 -51 78 -26 51 -84 124 -99
124 -5 0 -4 -9 2 -20 6 -12 27 -67 46 -123 81 -235 76 -210 72 -362 -4 -131
-7 -148 -43 -254 -28 -83 -60 -149 -118 -245 -111 -183 -108 -176 -95 -200 6
-12 45 -61 87 -109 165 -190 184 -242 197 -517 11 -223 -20 -342 -146 -555
-111 -188 -306 -370 -495 -461 -140 -67 -264 -114 -329 -124 -32 -5 -60 -11
-63 -13 -2 -3 -9 -130 -14 -284 -6 -153 -14 -282 -18 -286 -5 -5 -36 -11 -70
-14 l-61 -6 0 361 c0 198 -2 367 -5 374 -5 11 20 19 107 37 224 44 430 153
594 316 154 154 244 292 297 461 83 261 76 458 -23 654 -50 99 -160 260 -212
310 -21 19 -38 39 -38 43 0 4 27 42 61 84 70 88 145 231 184 353 49 148 46
406 -5 543 -58 156 -212 350 -373 472 -62 47 -228 135 -255 135 -35 0 -52 31
-52 96 0 48 -7 77 -26 118 -27 58 -50 84 -62 72 -4 -4 -7 -64 -7 -132 l0 -124
-83 0 -83 0 3 318 c2 174 6 322 11 329 4 7 21 10 40 7 17 -2 71 -8 119 -14z
m-667 -169 c30 -17 74 -90 75 -125 0 -32 -43 -107 -75 -129 -16 -11 -24 -14
-17 -7 32 35 2 32 -43 -5 -20 -16 -20 -16 3 -10 34 10 26 -4 -11 -20 -41 -17
-69 -11 -124 27 -52 35 -63 54 -63 108 0 68 57 153 120 179 31 13 96 4 135
-18z m-313 -278 l26 -25 -1 -202 c0 -124 4 -211 11 -227 9 -24 8 -28 -14 -38
-14 -6 -35 -11 -47 -11 -16 0 -18 -3 -9 -9 9 -5 -9 -11 -50 -15 -34 -4 -125
-16 -201 -27 -76 -11 -150 -19 -165 -18 -15 1 -56 1 -92 -1 -54 -2 -59 -4 -30
-9 34 -6 33 -7 -20 -13 -78 -10 -278 -18 -215 -8 l50 7 -45 1 c-71 3 -88 -5
-82 -36 6 -36 40 -72 68 -72 34 0 113 -37 166 -78 28 -21 70 -70 99 -113 l51
-78 -1 -423 c-1 -355 -8 -733 -25 -1233 -1 -49 -1 164 0 475 2 538 2 548 -6
210 -14 -599 -29 -951 -43 -1011 -27 -111 -119 -227 -252 -316 -70 -47 -155
-137 -142 -150 3 -3 46 2 94 11 190 34 884 79 897 58 4 -6 9 -41 13 -77 l6
-65 -32 -6 c-17 -4 -34 -11 -38 -17 -3 -6 -5 -85 -4 -176 1 -117 -3 -196 -14
-266 -14 -82 -16 -137 -10 -303 4 -112 4 -283 0 -381 l-7 -178 -55 -17 c-46
-15 -57 -16 -64 -4 -15 23 -17 899 -3 1197 l6 124 -118 -7 c-66 -4 -200 -14
-299 -22 -99 -8 -241 -17 -315 -20 -74 -3 -145 -10 -157 -16 -53 -26 -58 -3
-58 294 0 72 10 82 140 148 126 63 180 116 233 227 l36 77 7 205 c4 113 8 522
8 909 1 748 1 742 -47 785 -14 13 -53 23 -122 33 -97 14 -140 26 -140 42 -1
18 -43 55 -63 56 -19 1 -22 6 -20 36 1 19 5 101 9 182 l6 146 51 7 c29 3 97
13 152 20 55 8 174 21 265 30 195 18 423 45 428 50 2 2 7 80 11 174 5 94 10
173 12 176 30 29 124 22 161 -12z m2233 -73 c10 -11 16 -20 13 -20 -3 0 -13 9
-23 20 -10 11 -16 20 -13 20 3 0 13 -9 23 -20z m-1996 -125 c24 5 31 3 31 -9
0 -9 6 -15 13 -13 8 1 13 -17 15 -59 3 -55 1 -63 -21 -77 -13 -8 -40 -19 -59
-22 -33 -6 -36 -5 -41 24 -6 30 -2 96 9 150 4 18 8 21 13 12 6 -9 19 -11 40
-6z m-527 -40 c3 -30 3 -30 -49 -26 -16 1 -16 3 -3 11 8 5 12 10 7 10 -4 0 0
11 9 26 19 29 31 22 36 -21z m1318 -257 c10 -6 7 -7 -10 -2 -14 3 -32 11 -40
16 -10 6 -7 7 10 2 14 -3 32 -11 40 -16z m-166 -143 c135 -47 230 -136 297
-280 32 -70 54 -198 45 -268 -12 -85 -52 -193 -96 -259 -46 -68 -163 -193
-195 -209 -11 -6 5 14 35 43 78 75 107 114 35 48 -89 -83 -198 -146 -290 -170
-80 -21 -296 -46 -690 -81 -126 -11 -235 -25 -243 -31 -16 -14 -52 3 -72 35
-25 37 -32 1069 -8 1092 4 4 60 14 125 21 65 8 181 23 258 34 280 40 532 61
650 54 47 -3 108 -15 149 -29z m1692 -63 c6 -4 15 -25 20 -47 12 -49 5 -497
-7 -489 -5 3 -9 -13 -9 -34 0 -34 7 -48 49 -92 l50 -53 63 7 c35 3 133 11 218
16 85 6 169 13 185 16 22 4 38 -1 58 -16 32 -25 35 -40 7 -33 -14 4 -21 -1
-25 -20 -10 -39 -2 -62 23 -65 12 -2 22 -8 22 -13 0 -11 -37 -12 -44 -1 -2 4
-82 2 -178 -5 -95 -6 -226 -15 -291 -19 l-118 -7 -54 55 c-29 31 -65 74 -79
97 l-26 41 1 297 c1 164 4 312 8 328 5 27 11 31 51 36 25 3 50 7 55 7 6 1 15
-2 21 -6z m-2909 -294 c-2 -18 -4 -4 -4 32 0 36 2 50 4 33 2 -18 2 -48 0 -65z
m1762 -90 c0 -50 -16 -132 -19 -103 -12 116 -10 145 10 145 5 0 10 -19 9 -42z
m-2509 -370 c0 -4 -26 -7 -57 -6 l-58 1 45 6 c63 9 70 9 70 -1z m-1160 -99
c-25 -4 -70 -7 -100 -7 l-55 1 65 7 c36 4 81 7 100 7 31 0 30 0 -10 -8z m3140
-124 c0 -7 -83 -52 -110 -60 -14 -3 4 9 40 28 77 41 70 38 70 32z m2272 0 c11
-5 12 -18 5 -68 l-10 -63 -336 -33 c-185 -19 -339 -36 -343 -40 -4 -3 21 -4
55 -3 78 5 72 -3 -9 -12 l-61 -7 -7 52 c-4 29 -10 64 -13 79 -5 26 -3 28 38
35 64 10 80 15 74 26 -9 13 9 11 22 -2 9 -9 57 -7 190 5 172 17 330 32 365 35
9 0 23 -1 30 -4z m-2758 -115 c-5 -5 -50 -12 -99 -14 -103 -6 -95 0 15 13 41
5 79 9 85 10 5 0 5 -3 -1 -9z m-1536 -7 c-16 -2 -40 -2 -55 0 -16 2 -3 4 27 4
30 0 43 -2 28 -4z m1000 -50 c-10 -2 -28 -2 -40 0 -13 2 -5 4 17 4 22 1 32 -1
23 -4z m2509 -30 c-3 -10 -5 -4 -5 12 0 17 2 24 5 18 2 -7 2 -21 0 -30z
m-4414 10 c-7 -2 -21 -2 -30 0 -10 3 -4 5 12 5 17 0 24 -2 18 -5z m4730 -10
c-7 -2 -21 -2 -30 0 -10 3 -4 5 12 5 17 0 24 -2 18 -5z m-1748 -82 c66 -28 93
-48 156 -110 147 -147 199 -329 150 -524 -18 -69 -55 -157 -66 -157 -3 0 5 24
16 53 37 90 49 139 54 211 l4 71 -9 -60 c-33 -206 -117 -355 -270 -476 -181
-144 -270 -166 -855 -210 -154 -12 -304 -19 -334 -17 -49 4 -58 9 -89 44 l-33
39 4 533 c3 444 6 535 18 546 9 10 66 18 174 26 88 6 216 18 285 26 306 37
385 42 545 41 169 -2 170 -3 250 -36z m2234 -27 c3 -4 0 -9 -6 -11 -15 -6 -17
-67 -3 -93 13 -24 20 -22 -295 -50 -284 -25 -320 -32 -215 -40 l75 -6 -66 -2
-67 -2 -12 -80 c-7 -44 -16 -78 -20 -75 -15 10 -20 -29 -20 -164 0 -76 -3
-166 -6 -200 l-7 -61 -46 5 c-26 3 -51 13 -58 22 -15 20 -18 444 -3 507 10 45
92 171 126 193 27 17 95 27 364 53 184 17 246 18 259 4z m-1123 -71 c10 -21
27 -50 36 -64 10 -15 20 -55 24 -90 3 -35 8 -67 12 -70 4 -4 24 -12 44 -18 36
-12 37 -13 43 -74 4 -35 5 -213 3 -397 l-5 -335 -129 -135 c-267 -278 -537
-544 -608 -598 -35 -26 -116 -31 -136 -7 -10 12 -7 18 21 32 59 31 493 480
682 705 l56 67 0 373 c-1 223 -4 364 -10 351 -11 -30 -49 -31 -49 -3 0 12 -7
35 -16 52 -30 59 -34 90 -23 180 13 96 20 100 55 31z m-3157 -67 c-2 -2 -31
-6 -64 -9 l-60 -5 60 12 c55 11 75 12 64 2z m4142 -173 c2 -24 0 -37 -16 -108
-13 -55 -13 -58 2 -40 14 19 15 18 9 -18 -20 -112 -193 -551 -242 -614 -8 -10
2 18 22 62 21 44 52 118 71 165 19 47 43 105 54 130 21 47 71 232 64 238 -2 2
-20 -47 -40 -108 -78 -240 -250 -590 -400 -815 -158 -236 -308 -413 -500 -588
-341 -311 -669 -509 -1123 -676 -106 -39 -127 -50 -115 -62 9 -9 32 -2 168 46
45 15 -18 -18 -78 -41 -109 -43 -122 -32 -130 113 -4 88 -3 102 11 108 10 4
64 24 122 45 318 115 519 219 770 401 298 215 597 539 767 831 157 271 253
489 334 758 28 91 53 168 57 172 6 6 31 9 160 16 24 2 32 -2 33 -15z m-794
-283 l0 -125 -7 95 c-4 52 -8 140 -7 195 0 100 0 100 7 30 4 -38 7 -126 7
-195z m-3134 133 c-7 -2 -21 -2 -30 0 -10 3 -4 5 12 5 17 0 24 -2 18 -5z
m-666 -60 c-20 -2 -52 -2 -70 0 -17 2 0 4 38 4 39 0 53 -2 32 -4z m-139 -10
c-21 -2 -55 -2 -75 0 -21 2 -4 4 37 4 41 0 58 -2 38 -4z m-185 -10 c-13 -2
-33 -2 -45 0 -13 2 -3 4 22 4 25 0 35 -2 23 -4z m979 -65 c31 -33 48 -67 48
-94 0 -24 -20 -5 -21 19 -1 12 -5 -2 -10 -32 -13 -74 -30 -91 -93 -92 -44 -1
-47 -2 -21 -9 l30 -8 -33 -1 c-26 -1 -41 6 -63 30 -16 17 -33 28 -37 25 -5 -3
-92 -12 -193 -21 -101 -8 -269 -24 -374 -35 -104 -11 -248 -25 -320 -30 -71
-6 -149 -13 -173 -16 l-42 -6 6 -37 c10 -60 25 -105 40 -117 8 -7 28 -49 45
-95 145 -400 504 -848 877 -1096 232 -154 462 -255 739 -323 127 -32 140 -37
124 -53 -6 -6 -11 -49 -11 -99 0 -100 2 -98 -85 -74 -267 73 -490 161 -710
281 -102 56 -67 27 54 -44 110 -64 127 -79 38 -35 -67 34 -159 97 -194 132
-14 15 -21 19 -14 10 18 -24 2 -22 -29 2 -15 12 -18 18 -7 14 32 -12 17 3 -58
55 -41 28 -75 48 -75 44 0 -5 23 -24 51 -43 66 -45 74 -59 12 -21 -27 17 -65
47 -84 68 -19 21 -63 58 -97 82 -68 48 -213 195 -333 336 -191 225 -356 529
-463 850 -41 121 -47 140 -82 235 -13 36 -24 66 -24 67 0 5 73 14 185 23 66 5
206 16 310 24 105 9 347 25 539 37 l349 21 45 29 c64 41 114 40 154 -3z m375
-330 c-2 -18 -4 -4 -4 32 0 36 2 50 4 33 2 -18 2 -48 0 -65z m1627 49 c-16
-18 -40 -42 -54 -52 -14 -11 -3 6 25 37 27 31 51 55 54 53 2 -2 -9 -19 -25
-38z m-3277 -39 c-3 -8 -6 -5 -6 6 -1 11 2 17 5 13 3 -3 4 -12 1 -19z m1372
-24 c3 -3 -3 -20 -14 -40 -24 -45 -95 -91 -154 -99 -25 -4 -83 -13 -128 -21
-45 -7 -137 -16 -205 -19 -126 -6 -330 -21 -405 -31 l-42 -5 14 -37 c75 -212
260 -502 434 -686 143 -149 383 -339 513 -406 111 -56 282 -108 411 -125 26
-3 47 -10 47 -15 0 -17 -211 25 -345 68 -199 66 -480 233 -680 405 -254 218
-509 609 -566 867 -5 25 -12 53 -15 63 -5 14 1 17 40 17 24 0 78 4 118 10 40
5 172 16 293 25 121 9 265 22 320 30 92 13 351 12 364 -1z m-1362 -26 c-3 -8
-6 -5 -6 6 -1 11 2 17 5 13 3 -3 4 -12 1 -19z m3153 -12 c0 -3 -15 -14 -32
-26 l-33 -22 28 26 c27 25 37 31 37 22z m455 -100 c-15 -20 -32 -36 -37 -36
-6 0 5 17 23 38 42 48 51 46 14 -2z m1305 -96 c-11 -22 -23 -40 -25 -40 -3 0
4 18 15 40 11 22 23 40 25 40 3 0 -4 -18 -15 -40z m-1465 -60 c-16 -16 -31
-27 -34 -24 -5 4 48 53 58 54 3 0 -8 -13 -24 -30z m1341 -148 c-17 -16 -18
-16 -5 5 7 12 15 20 18 17 3 -2 -3 -12 -13 -22z m-2390 -48 c50 -24 53 -29 60
-70 3 -25 3 -96 -1 -159 -8 -131 -11 -135 -89 -135 l-46 0 0 188 c0 171 3 202
18 202 3 0 29 -12 58 -26z m-1398 -211 c15 -25 40 -60 55 -76 27 -29 30 -30
97 -23 134 12 437 35 558 42 l122 7 0 -62 c0 -33 0 -64 0 -68 0 -4 -57 -15
-127 -25 -248 -32 -468 -58 -503 -58 -24 0 -31 -3 -21 -9 11 -7 10 -14 -5 -40
-24 -41 -54 -40 -93 4 -35 40 -37 51 -18 88 l14 26 28 -27 c16 -15 -2 7 -40
48 -68 75 -115 155 -115 198 0 35 19 26 48 -25z m3563 -56 c-10 -9 -11 -8 -5
6 3 10 9 15 12 12 3 -3 0 -11 -7 -18z m-119 -139 c-72 -87 -262 -272 -297
-290 -11 -6 12 19 50 55 109 101 240 238 275 285 17 24 34 41 37 39 3 -3 -26
-43 -65 -89z m-1024 58 c15 -8 35 -23 45 -34 19 -21 47 -112 46 -147 -1 -11
-6 0 -12 25 l-11 45 -6 -46 c-7 -55 -27 -88 -76 -126 -38 -28 -85 -35 -147
-21 -42 10 -55 25 -71 79 -13 42 -13 56 -2 93 17 56 50 103 90 127 37 22 106
25 144 5z m-1251 -58 c-2 -13 -4 -5 -4 17 -1 22 1 32 4 23 2 -10 2 -28 0 -40z
m279 -17 c23 -10 49 -29 58 -42 35 -50 33 -137 -5 -177 -30 -33 -39 -26 -18
15 10 21 18 51 18 68 -1 30 -1 30 -8 -5 -10 -47 -22 -68 -66 -110 -32 -31 -42
-35 -85 -34 -27 0 -47 -3 -44 -8 14 -23 -18 -4 -44 27 -61 68 -61 151 -2 219
58 65 122 81 196 47z m1654 -305 c0 -2 -8 -10 -17 -17 -16 -13 -17 -12 -4 4
13 16 21 21 21 13z m-1660 -371 c-5 -283 -6 -284 -55 -285 -30 0 -49 -16 -39
-31 6 -10 1 -9 -16 2 -31 20 -37 75 -39 372 l-1 207 78 0 77 0 -5 -265z m1480
230 c-7 -9 -27 -25 -44 -36 -24 -16 -22 -12 9 15 43 38 55 46 35 21z m-85 -65
c-3 -5 -11 -10 -16 -10 -6 0 -7 5 -4 10 3 6 11 10 16 10 6 0 7 -4 4 -10z m-56
-34 c-14 -14 -249 -139 -324 -173 -102 -46 -125 -55 -125 -47 0 4 95 51 295
145 11 5 45 25 75 43 45 28 96 48 79 32z m-2569 -211 c25 -13 42 -24 38 -25
-11 0 -98 39 -98 45 0 9 14 5 60 -20z m2095 -24 c-6 -11 -116 -54 -121 -48 -3
3 110 54 124 56 2 1 1 -3 -3 -8z m-1965 -32 c52 -27 23 -22 -35 7 -27 13 -39
21 -25 18 14 -4 41 -15 60 -25z m227 -75 c30 -9 53 -18 51 -20 -2 -2 -33 5
-69 15 -35 11 -58 20 -51 20 8 1 39 -6 69 -15z m90 -30 c-3 -3 -12 -4 -19 -1
-8 3 -5 6 6 6 11 1 17 -2 13 -5z m803 -74 c0 -17 -6 -20 -42 -18 l-43 1 38 4
c24 3 37 9 37 19 0 8 2 14 5 14 3 0 5 -9 5 -20z m-323 -22 c-3 -8 -6 -5 -6 6
-1 11 2 17 5 13 3 -3 4 -12 1 -19z"/>
<path d="M6010 7302 c5 -15 11 -39 14 -54 5 -23 9 -25 33 -19 34 9 49 53 24
74 -9 8 -30 17 -48 20 -31 6 -31 5 -23 -21z"/>
<path d="M5837 7299 c-22 -13 -39 -53 -31 -74 7 -18 74 -21 92 -3 19 19 15 66
-7 78 -24 12 -31 12 -54 -1z"/>
<path d="M5670 7228 c0 -21 5 -38 10 -38 13 0 13 40 0 60 -7 11 -10 5 -10 -22z"/>
<path d="M5990 7182 c0 -21 -102 -72 -142 -72 -27 0 -93 33 -125 63 -13 11
-23 16 -23 11 0 -16 179 -211 198 -216 9 -3 40 -3 67 -2 46 3 48 2 25 -9 -51
-25 -29 -107 29 -107 20 0 22 -3 12 -9 -12 -8 -8 -11 15 -16 16 -4 38 -10 49
-15 11 -4 35 -13 52 -20 68 -26 117 18 72 66 -19 20 -20 24 -6 30 27 10 102
-51 279 -225 93 -91 172 -167 176 -170 4 -4 31 -32 60 -63 l52 -57 0 60 c0 38
-4 59 -12 59 -16 0 -81 51 -74 58 7 7 -23 42 -36 42 -5 0 -6 -6 -1 -12 4 -7
-19 9 -50 36 -31 27 -57 51 -57 53 0 7 25 -12 69 -51 19 -17 31 -26 28 -20 -4
7 -35 36 -69 65 -34 30 -58 47 -53 39 8 -13 6 -13 -8 -1 -9 7 -14 17 -11 22 3
5 0 8 -8 7 -7 -2 -12 3 -10 10 1 8 -2 11 -8 7 -6 -3 -14 4 -19 17 -6 13 -10
19 -10 14 -1 -5 -8 -3 -16 4 -8 7 -12 17 -8 23 3 5 1 7 -4 4 -6 -4 -17 1 -24
10 -12 14 -12 16 1 8 19 -10 11 -3 -71 68 -36 31 -69 54 -72 50 -4 -3 -7 -1
-7 5 0 7 -6 12 -14 12 -7 0 -30 18 -49 39 -19 22 -45 42 -56 46 -12 3 -21 12
-21 19 0 7 -20 36 -45 65 -25 29 -45 57 -45 62 0 5 -7 9 -15 9 -8 0 -15 -8
-15 -18z m78 -229 c-10 -2 -26 -2 -35 0 -10 3 -2 5 17 5 19 0 27 -2 18 -5z
m277 -83 c10 -11 16 -20 13 -20 -3 0 -13 9 -23 20 -10 11 -16 20 -13 20 3 0
13 -9 23 -20z"/>
<path d="M6280 6810 c0 -5 5 -10 11 -10 5 0 7 5 4 10 -3 6 -8 10 -11 10 -2 0
-4 -4 -4 -10z"/>
<path d="M6700 6545 c0 -2 10 -10 23 -16 20 -11 21 -11 8 4 -13 16 -31 23 -31
12z"/>
<path d="M6827 5204 c-32 -32 -35 -66 -7 -94 37 -37 98 -22 120 29 30 74 -55
123 -113 65z"/>
<path d="M4887 7203 c-15 -14 -7 -72 11 -81 29 -15 72 11 72 44 0 31 -62 59
-83 37z"/>
<path d="M4018 6433 c12 -2 32 -2 45 0 12 2 2 4 -23 4 -25 0 -35 -2 -22 -4z"/>
<path d="M5219 6241 c-42 -3 -82 -11 -90 -18 -19 -15 -118 -22 -146 -10 -16 7
-26 6 -37 -5 -15 -16 -59 -23 -201 -33 -44 -3 -108 -8 -142 -11 l-63 -6 2 -41
1 -42 4 38 c4 33 7 37 31 36 15 -1 20 -3 11 -6 -25 -6 -29 -71 -29 -430 0
-206 -4 -323 -10 -323 -6 0 -11 111 -13 298 l-2 297 -3 -304 -2 -304 78 7 c42
3 111 10 152 16 41 5 174 17 295 26 309 22 380 39 476 115 90 71 169 230 169
340 0 83 -47 208 -87 232 -7 4 -13 13 -13 20 0 22 -122 95 -178 106 -55 11
-76 12 -203 2z m262 -198 c68 -34 118 -85 145 -148 14 -33 9 -45 -11 -26 -6 5
-36 18 -68 30 -76 28 -152 27 -308 -3 -133 -26 -252 -45 -309 -49 l-35 -2 -6
-205 c-3 -113 -6 -206 -7 -207 -1 -2 -38 -3 -82 -3 l-80 0 -2 48 c0 26 -2 156
-2 288 l-1 241 120 17 c284 40 415 54 495 53 74 -2 94 -6 151 -34z"/>
<path d="M5073 6223 c9 -2 25 -2 35 0 9 3 1 5 -18 5 -19 0 -27 -2 -17 -5z"/>
<path d="M5893 5880 c0 -25 2 -35 4 -22 2 12 2 32 0 45 -2 12 -4 2 -4 -23z"/>
<path d="M5135 4924 c-55 -7 -165 -20 -245 -29 -80 -8 -193 -23 -252 -32
l-106 -16 -6 -101 c-3 -56 -7 -246 -9 -424 -3 -291 -2 -322 12 -316 35 14 217
34 396 44 452 25 526 45 673 184 55 53 82 87 110 145 36 73 37 80 37 181 0
135 -21 187 -106 261 -90 78 -144 94 -314 93 l-140 -1 80 12 c77 12 78 12 25
12 -30 0 -100 -6 -155 -13z m28 -21 c-7 -2 -21 -2 -30 0 -10 3 -4 5 12 5 17 0
24 -2 18 -5z m-73 -9 c-37 -8 -88 -9 -84 -2 3 4 26 7 52 7 26 -1 40 -3 32 -5z
m-323 -38 c3 -2 -26 -7 -64 -11 -37 -4 -86 -10 -108 -14 l-40 -7 -6 -357 c-3
-196 -9 -360 -14 -364 -4 -5 -5 95 -1 221 3 126 6 293 6 371 l0 142 48 7 c26
4 67 10 92 15 44 7 78 6 87 -3z m774 -118 c25 -11 62 -36 82 -56 35 -36 73
-109 63 -119 -3 -3 -22 3 -43 13 -30 15 -60 19 -148 19 -107 -1 -601 -38 -609
-46 -2 -2 -6 -109 -10 -238 -3 -129 -8 -236 -11 -239 -7 -7 -155 -19 -161 -13
-6 6 -5 251 3 459 l6 182 28 0 c16 0 113 11 216 25 350 47 495 50 584 13z"/>
<path d="M5411 4936 c2 -2 24 -6 49 -9 30 -4 38 -3 25 3 -19 8 -83 14 -74 6z"/>
<path d="M7266 4794 c-4 -20 -5 -38 -2 -41 2 -3 8 11 12 31 3 21 4 39 1 42 -2
3 -8 -11 -11 -32z"/>
<path d="M5821 3124 c-40 -50 -16 -104 46 -104 38 0 66 31 66 72 0 59 -74 80
-112 32z"/>
<path d="M4851 3064 c-12 -15 -21 -35 -21 -45 0 -48 85 -69 114 -27 49 69 -41
138 -93 72z"/>
<path d="M5623 8013 c9 -2 25 -2 35 0 9 3 1 5 -18 5 -19 0 -27 -2 -17 -5z"/>
<path d="M5698 8003 c7 -3 16 -2 19 1 4 3 -2 6 -13 5 -11 0 -14 -3 -6 -6z"/>
<path d="M6010 7930 c8 -5 22 -9 30 -9 10 0 8 3 -5 9 -27 12 -43 12 -25 0z"/>
<path d="M6075 7910 c11 -5 27 -9 35 -9 9 0 8 4 -5 9 -11 5 -27 9 -35 9 -9 0
-8 -4 5 -9z"/>
<path d="M4360 7890 c-21 -7 -22 -8 -5 -9 21 -1 54 -41 34 -41 -7 0 -10 -12
-7 -30 3 -16 2 -30 -1 -30 -3 0 -5 -42 -5 -92 1 -71 0 -82 -6 -48 l-7 45 -1
-57 c-2 -53 -4 -58 -24 -59 -22 -1 -22 -1 2 -8 l25 -7 -30 -8 c-104 -25 -461
-190 -580 -267 -27 -18 -77 -51 -110 -73 -49 -32 -56 -34 -36 -13 14 15 29 27
36 27 6 0 26 14 45 30 35 30 35 30 -25 -5 -33 -19 -84 -54 -112 -77 -183 -149
-212 -174 -212 -181 -1 -5 5 -5 12 -1 6 4 -44 -52 -112 -124 -68 -73 -129
-135 -135 -139 -6 -3 -5 0 2 8 6 7 12 18 12 23 0 6 -8 -1 -17 -14 -10 -14 -17
-28 -15 -33 1 -4 -2 -6 -7 -5 -10 3 -113 -117 -158 -184 -34 -49 -53 -86 -26
-48 10 14 31 38 46 55 20 21 14 8 -20 -48 -26 -42 -69 -112 -96 -155 -75 -121
-150 -275 -212 -432 -64 -162 -78 -191 -72 -145 2 17 7 39 11 50 7 18 6 18 -4
2 -6 -9 -20 -43 -30 -74 -14 -44 -16 -59 -7 -65 12 -8 237 0 247 9 2 2 -2 8
-9 13 -12 7 -11 19 8 72 32 90 213 446 281 555 149 237 356 475 545 628 114
91 309 222 400 268 169 84 369 156 440 156 17 0 41 2 54 3 22 3 26 -3 37 -47
10 -43 12 -7 13 242 1 257 -1 292 -14 287 -11 -5 -13 -2 -9 10 12 32 -84 56
-146 36z"/>
<path d="M6131 7897 c8 -10 151 -58 156 -53 2 2 -26 14 -64 26 -37 13 -75 25
-83 28 -8 3 -12 2 -9 -1z"/>
<path d="M4280 7870 c-13 -9 -13 -10 0 -10 8 0 22 5 30 10 13 9 13 10 0 10 -8
0 -22 -5 -30 -10z"/>
<path d="M6310 7830 c8 -5 20 -10 25 -10 6 0 3 5 -5 10 -8 5 -19 10 -25 10 -5
0 -3 -5 5 -10z"/>
<path d="M6190 7746 c0 -2 7 -7 16 -10 8 -3 12 -2 9 4 -6 10 -25 14 -25 6z"/>
<path d="M5648 7673 c6 -2 18 -2 25 0 6 3 1 5 -13 5 -14 0 -19 -2 -12 -5z"/>
<path d="M4108 7483 c7 -3 16 -2 19 1 4 3 -2 6 -13 5 -11 0 -14 -3 -6 -6z"/>
<path d="M3915 7399 c-22 -12 -44 -26 -50 -31 -5 -6 14 2 43 17 28 15 52 29
52 31 0 6 -3 5 -45 -17z"/>
<path d="M3793 7330 c-29 -17 -53 -33 -53 -35 0 -7 69 29 95 49 31 24 15 19
-42 -14z"/>
<path d="M3269 6922 l-54 -57 55 50 c30 28 57 51 59 53 2 1 2 4 0 7 -3 2 -30
-21 -60 -53z"/>
<path d="M3189 6843 c-13 -16 -12 -17 4 -4 9 7 17 15 17 17 0 8 -8 3 -21 -13z"/>
<path d="M2793 6798 c-20 -26 -26 -41 -15 -34 12 7 36 46 29 46 -3 0 -9 -6
-14 -12z"/>
<path d="M3144 6788 l-19 -23 23 19 c21 18 27 26 19 26 -2 0 -12 -10 -23 -22z"/>
<path d="M2723 6704 c-36 -47 -45 -75 -12 -34 33 41 52 70 48 74 -2 2 -19 -16
-36 -40z"/>
<path d="M2721 6668 c-5 -15 -4 -26 3 -30 7 -5 7 -8 -3 -8 -11 0 -11 -3 0 -16
7 -9 9 -18 3 -22 -8 -7 -36 -72 -29 -72 3 0 99 140 109 160 4 8 -1 5 -12 -7
-25 -28 -28 -28 -35 -3 -7 27 -26 25 -36 -2z"/>
<path d="M2863 6428 c-15 -20 -25 -38 -20 -38 3 0 12 11 21 25 17 26 16 35 -1
13z"/>
<path d="M2827 6373 c-2 -5 -17 -30 -32 -58 -16 -27 -24 -45 -18 -40 14 14 66
105 60 105 -3 0 -8 -3 -10 -7z"/>
<path d="M2705 6159 c-9 -17 -15 -33 -13 -35 3 -2 12 12 21 31 21 43 13 47 -8
4z"/>
<path d="M2626 5995 c-3 -9 -6 -22 -5 -28 0 -7 5 -1 10 12 5 13 8 26 5 28 -2
2 -6 -3 -10 -12z"/>
<path d="M7711 5944 c0 -11 3 -14 6 -6 3 7 2 16 -1 19 -3 4 -6 -2 -5 -13z"/>
<path d="M7721 5904 c0 -11 3 -14 6 -6 3 7 2 16 -1 19 -3 4 -6 -2 -5 -13z"/>
<path d="M3682 5698 c-21 -28 -22 -54 -3 -72 27 -24 62 -17 81 17 14 27 14 29
-9 48 -27 22 -54 25 -69 7z"/>
<path d="M2538 5153 c12 -2 30 -2 40 0 9 3 -1 5 -23 4 -22 0 -30 -2 -17 -4z"/>
<path d="M3680 5030 c-38 -38 -20 -90 30 -90 32 0 50 17 50 48 0 58 -42 80
-80 42z"/>
<path d="M6352 4550 c0 -19 2 -27 5 -17 2 9 2 25 0 35 -3 9 -5 1 -5 -18z"/>
</g>
</svg>
